<?xml version="1.0" encoding="utf-8"?>
<!-- Generator: Adobe Illustrator 27.7.0, SVG Export Plug-In . SVG Version: 6.00 Build 0)  -->
<svg version="1.1" id="图层_1" xmlns="http://www.w3.org/2000/svg" xmlns:xlink="http://www.w3.org/1999/xlink" x="0px" y="0px"
	 viewBox="0 0 24 24" style="enable-background:new 0 0 24 24;" xml:space="preserve">
<style type="text/css">
	.st0{fill:#FFFFFF;}
</style>
<path class="st0" d="M8.1,19.5c-2.2-0.8-3.9-2.8-4.4-5.1L2,6.5C1.8,5.5,2.5,4.4,3.6,4.2l9.8-2.1l0,0c1.1-0.2,2.1,0.5,2.3,1.5
	l0.3,1.7l4.4,0.9h0c1,0.2,1.7,1.3,1.5,2.4l-1.7,7.8c-0.8,3.8-4.5,6.2-8.3,5.4c0,0,0,0,0,0C10.5,21.5,9.1,20.6,8.1,19.5 M20,8.2
	l-9.8-2.1l-1.7,7.8v0c-0.6,2.7,1.2,5.3,3.9,5.9s5.4-1.1,5.9-3.8L20,8.2 M16,16.5c-0.6,1.1-1.9,1.7-3.2,1.4c-1.2-0.3-2.2-1.3-2.3-2.6
	L16,16.5 M8.5,5.2L4,6.1l1.7,7.8l0,0c0.2,0.7,0.4,1.4,0.9,1.9c-0.1-0.8-0.1-1.6,0.1-2.4l0.4-2c-0.4-0.1-0.8-0.3-1.1-0.7
	c0.1-0.6,0.6-1.1,1.2-1.3h0.2l0.8-3.8C8.3,5.5,8.4,5.3,8.5,5.2 M15,12.2c0.3-0.5,1-0.8,1.7-0.7c0.7,0.1,1.2,0.7,1.3,1.3
	c-0.3,0.5-1,0.8-1.7,0.6C15.6,13.4,15.1,12.8,15,12.2 M10.1,11.2c0.3-0.5,1-0.8,1.7-0.7c0.7,0.1,1.2,0.7,1.3,1.3
	c-0.3,0.5-1,0.8-1.7,0.7C10.7,12.3,10.2,11.8,10.1,11.2 M12,4.4l2,0.4l-0.2-0.8L12,4.4z"/>
</svg>
