<?xml version="1.0" standalone="no"?><!DOCTYPE svg PUBLIC "-//W3C//DTD SVG 1.1//EN" "http://www.w3.org/Graphics/SVG/1.1/DTD/svg11.dtd"><svg t="1696001363711" class="icon" viewBox="0 0 1024 1024" version="1.1" xmlns="http://www.w3.org/2000/svg" p-id="2957" xmlns:xlink="http://www.w3.org/1999/xlink" width="200" height="200"><path d="M752.4 114.6c-8.4 2.6-23.2 15.6-26.2 23l-2.4 5.6-40.4 2.4c-22.2 1.4-50.2 3.8-62.4 5.4-154 20.6-253.6 84-289.8 184.6-3.8 10.8-11.2 43-11.2 49.2 0 0-16 0.2-35.6 0.4-25.2 0-40.4 1-53.2 3.6-51.8 10.2-89.8 29.4-122.4 62-26.6 26.6-44.4 56.8-54.2 92.2-5.2 18.2-6 19.6-12.8 23.2C27 573.6 16 591.6 16 608c0 24.8 23.2 48 48 48 18.4 0 40.4-16 45.6-33.2 4.8-16.4 0.8-34.6-10-46.2-4.2-4.4-4.2-4.6-0.4-8.8 11-12.2 37-21.4 64.8-23.2 30.6-1.8 48.8 5.2 61.4 24.2 8.6 12.6 12.4 26.2 14 48.4 1.6 23.4-0.6 40.6-5 42-21.6 6.6-39.4 21.4-49.2 41-12.4 24.8-12.4 24.8 11.8 106.8 11.6 39.6 23.6 79.4 26.2 88.4l5 16.6H795.6l2.2-6.4c1-3.6 13-43 26.4-87.6 27.6-92.4 27.4-91.2 14.8-117.4-9.8-19.8-27.8-34.8-49.4-41.4-4.6-1.4-6.4-15.4-5-39 2.2-36.8 12.8-58.4 34.4-69.2 11.2-5.6 13.4-6 35-5.8 16 0 26.6 1 35 3.6 14.4 4.2 29.2 12 35.2 18.4l4.2 4.6-6 7.6c-15.6 20-13.8 43.2 4.6 61.6 20.2 20.4 45.8 20.4 66 0 14-14 18.2-29.2 12.6-47.2-3-10-13.8-22.8-23.8-28-5.6-2.8-7.8-5.2-7.8-8.4 0-8.6-8.6-38.4-15.8-55.6-20.4-47-59.6-84.2-107.8-101.8-31.2-11.4-53.2-14.8-95.4-14.6-34.8 0-39.8 0.4-58 5.2-11 3-27.6 9-36.6 13.4-9.2 4.4-17.2 8-17.6 8-1.8 0-0.6-16.4 2.2-33.2 9.6-54.6 38-108 82.8-155.2l19.4-20.2 6.6 2.2c16.6 5.8 33.4 1.4 47.2-12.6 19.6-19.4 20.2-44.4 1.6-65-12.8-14.4-31.8-19.4-50.2-13.4zM705.8 198c-32.2 35.6-50 60.6-66.2 92.6C620 330 608 378 608 418.2c0 17.4-0.4 19.8-4 21.8-6 3.2-31.2 33-43 51-13.4 20.4-29.4 52.4-39 77.6l-7.4 19.6-5.4-17.4c-13-41.2-29-72.4-57.2-111.4-4.6-6.6-3.6-49.8 1.8-70.4 18-69 78.8-127.8 178.2-172.2 20-8.8 81-32.4 84.8-32.8 0.8 0-4.2 6.4-11 14z m77.2 220c54 6.2 96.4 26.4 122.8 58.4 9.4 11.4 26 41.6 29.2 53.2 1.4 4.6 1.2 4.6-9.4-1.4-19-10.6-35.8-14.6-65.8-15.6-21.8-0.8-29.4-0.4-38.8 2.4-32 9.2-51.4 28.6-62.6 62.6-4.2 13.2-5.2 20-6 47.8-0.8 28.4-1.2 32.6-4.2 32.6-6.4 0-27.4 11.6-35.6 19.8L704 686l-8.4-8.4c-4.8-4.4-14.4-11-21.6-14.4-12-5.8-14.6-6.2-34-6.2-18.8 0-22.2 0.6-33 5.6-6.6 3-16.2 9.8-21.4 14.8l-9.4 9.2-10.2-9.2c-9-8-19.8-14.4-30.4-18-4.8-1.6-4.6-5.4 2.4-32.2 16-62.4 43.4-115.8 77.8-151.8 44.6-46.6 98.4-65.2 167.2-57.4zM277.2 693.6c9.2 4.8 17 12.8 21.8 22 2.4 4.8 5.4 28.2 11.2 85 4.2 43.2 7.8 78.6 7.8 78.8 0 0.4-14.8 0.6-32.6 0.6h-32.8l-22.2-74c-22-73.6-22.2-74-19.4-83 8.6-29 40-42.8 66.2-29.4z m128 0c9 4.6 16.8 12.6 22 22.4 3.4 6.4 3.8 13.4 4.4 85.6l0.6 78.4-40.6-0.4-40.6-0.6-7.4-73c-6.8-67-7.2-73.8-4.6-83 8.2-28.6 40-42.8 66.2-29.4z m128 0c9 4.6 16.8 12.6 22 22.4 3.4 6.4 3.8 13.4 4.4 85.4l0.6 78.6H464v-73.6c0-80 0.6-86 11-99.6 13.6-17.8 38.4-23.4 58.2-13.2z m128 0c12.6 6.6 22.2 18.8 25.6 33 0.6 3-0.6 23.6-2.8 45.6-2.4 22.2-3.6 40.8-3 41.4 1.4 1.4 29.4 4.6 30.6 3.4 0.4-0.4 2.8-21.8 5.4-47.6 5-50.2 6.8-57 18.4-67.6 10-9.4 18.6-12.6 32.6-12.6 9.4 0 15.2 1.2 21.2 4.2 14 7.4 24.8 23.2 25.2 37.2 0 3.6-9.6 38.6-21.4 77.8L771.4 880H706l1.4-15c1.4-17 2.4-16-17.8-17.8l-13.2-1.2-1.4 17-1.4 17H592v-73.6c0-80 0.6-86 11-99.6 13.6-17.8 38.4-23.4 58.2-13.2z" p-id="2958"></path></svg>